<svg width="64" height="64" viewBox="0 0 64 64" fill="none" xmlns="http://www.w3.org/2000/svg">
<defs>
<linearGradient id="grad1" x1="0%" y1="0%" x2="100%" y2="100%">
  <stop offset="0%" style="stop-color:#4f46e5;stop-opacity:1" />
  <stop offset="100%" style="stop-color:#7c3aed;stop-opacity:1" />
</linearGradient>
</defs>
<rect width="64" height="64" rx="12" fill="url(#grad1)"/>
<path d="M21 17H35.5L43 24.5V47C43 48.1046 42.1046 49 41 49H23C21.8954 49 21 48.1046 21 47V17Z" fill="white" fill-opacity="0.1"/>
<path d="M23 15H37.5L45 22.5V45C45 46.1046 44.1046 47 43 47H25C23.8954 47 23 46.1046 23 45V15Z" fill="white"/>
<path d="M37 15V23H45L37 15Z" fill="black" fill-opacity="0.1"/>
<path d="M30 38V31H32.5V35.5L36 31H39L34.5 36L39 42H36L32.5 37.5V42H30Z" fill="url(#grad1)"/>
</svg>
